<svg width="55" height="19" viewBox="0 0 55 19" fill="none" xmlns="http://www.w3.org/2000/svg">
<path fill-rule="evenodd" clip-rule="evenodd" d="M6.2029 12.6768C6.72995 12.6768 7.15723 12.2419 7.15723 11.7055L7.15714 2.67076C7.15714 1.1958 8.33202 0 9.78135 0C11.2307 0 12.4056 1.1958 12.4056 2.67076V11.7107C12.4056 15.1943 9.62058 18.0183 6.19774 18.0183C2.77481 18.0183 6.10352e-05 15.1943 6.10352e-05 11.7107V11.7074V10.008C6.10352e-05 8.53293 1.17494 7.33721 2.62436 7.33721C4.07362 7.33721 5.24849 8.53293 5.24849 10.008L5.24858 11.7055C5.24858 12.2419 5.67585 12.6768 6.2029 12.6768ZM36.3024 5.15092C36.9011 3.8077 38.4566 3.21296 39.7763 3.8224C41.096 4.43184 41.6805 6.01475 41.0816 7.35797L37.0511 16.398L37.0509 16.3972C36.6457 17.3397 35.7218 18.0181 34.6463 18.0181H34.6462C33.6009 18.0181 32.6987 17.3765 32.2767 16.4763L32.2763 16.4766L28.2108 7.35797C27.612 6.01475 28.1963 4.43184 29.5162 3.8224C30.836 3.21296 32.3912 3.8077 32.9901 5.15092L34.6463 8.86553L36.3023 5.1511L36.3024 5.15092ZM20.4314 12.6768C20.9584 12.6768 21.3857 12.2419 21.3857 11.7055V6.27412C21.3857 4.79908 22.5606 3.60336 24.0098 3.60336C25.4592 3.60336 26.6341 4.79908 26.6341 6.27412L26.6337 11.7103C26.6337 15.1939 23.8491 18.0179 20.4262 18.0179C17.0034 18.0179 14.2285 15.1939 14.2285 11.7103V11.7071L14.2286 6.27412C14.2286 4.79908 15.4035 3.60336 16.8528 3.60336C18.3022 3.60336 19.477 4.79908 19.477 6.27412V11.7055C19.477 12.2419 19.9043 12.6768 20.4314 12.6768ZM48.3074 12.6765C47.7803 12.6765 47.3531 12.2416 47.3531 11.7052L47.3525 9.89667C47.3525 9.36009 47.7799 8.92515 48.307 8.92515C48.8342 8.92515 49.2615 9.36009 49.2615 9.89667L49.2617 11.7052C49.2617 12.2416 48.8344 12.6765 48.3074 12.6765ZM48.312 3.60348C44.8891 3.60348 42.1045 6.42754 42.1045 9.91119V11.7165C42.1045 15.2001 44.8793 18.0181 48.3021 18.0181C51.7252 18.0181 54.5097 15.2001 54.5097 11.7165V9.91119C54.5097 6.42754 51.7349 3.60348 48.312 3.60348Z" fill="white"/>
</svg>
